<?xml version="1.0" standalone="no"?><!DOCTYPE svg PUBLIC "-//W3C//DTD SVG 1.1//EN" "http://www.w3.org/Graphics/SVG/1.1/DTD/svg11.dtd"><svg xmlns="http://www.w3.org/2000/svg" viewBox="0 0 650 400" version="1.1"><clipPath id="box"><rect x="0" y="0" width="650" height="400" style="fill:none;stroke:none;" /></clipPath><g clip-path="url(#box)"><rect x="0.00" y="0.00" width="650.00" height="400.00" style="fill:#FFFFFF;stroke:none;" /><path d="M0.00 400.00 L650.00 400.00 M0.00 360.00 L650.00 360.00 M0.00 320.00 L650.00 320.00 M0.00 280.00 L650.00 280.00 M0.00 240.00 L650.00 240.00 M0.00 200.00 L650.00 200.00 M0.00 160.00 L650.00 160.00 M0.00 120.00 L650.00 120.00 M0.00 79.00 L650.00 79.00 M0.00 39.00 L650.00 39.00 M0.00 0.00 L650.00 0.00 M0.00 0.00 L0.00 400.00 M65.00 0.00 L65.00 400.00 M130.00 0.00 L130.00 400.00 M195.00 0.00 L195.00 400.00 M260.00 0.00 L260.00 400.00 M325.00 0.00 L325.00 400.00 M390.00 0.00 L390.00 400.00 M454.00 0.00 L454.00 400.00 M520.00 0.00 L520.00 400.00 M585.00 0.00 L585.00 400.00 M650.00 0.00 L650.00 400.00 " style="fill:none;stroke:#D0D0D0;stroke-width:1;" /><path d="M0.00 0.00 L0.00 400.00 " style="fill:none;stroke:#000000;stroke-width:1;" /><path d="M-6.50 400.00 L6.50 400.00 M-6.50 360.00 L6.50 360.00 M-6.50 320.00 L6.50 320.00 M-6.50 280.00 L6.50 280.00 M-6.50 240.00 L6.50 240.00 M-6.50 200.00 L6.50 200.00 M-6.50 160.00 L6.50 160.00 M-6.50 120.00 L6.50 120.00 M-6.50 80.00 L6.50 80.00 M-6.50 40.00 L6.50 40.00 M-6.50 0.00 L6.50 0.00 " style="fill:none;stroke:#000000;stroke-width:1;" /><path d="M0.00 400.00 L650.00 400.00 " style="fill:none;stroke:#000000;stroke-width:1;" /><path d="M0.00 393.50 L0.00 406.50 M65.00 393.50 L65.00 406.50 M130.00 393.50 L130.00 406.50 M195.00 393.50 L195.00 406.50 M260.00 393.50 L260.00 406.50 M325.00 393.50 L325.00 406.50 M390.00 393.50 L390.00 406.50 M455.00 393.50 L455.00 406.50 M520.00 393.50 L520.00 406.50 M585.00 393.50 L585.00 406.50 M650.00 393.50 L650.00 406.50 " style="fill:none;stroke:#000000;stroke-width:1;" /><text x="8.125" y="362.5" text-anchor="start" style="font:10px Droid Sans,Trebuchet MS,Arial,Helvetica,sans-serif;stroke:none;fill:#000000">1</text><text x="8.125" y="322.5" text-anchor="start" style="font:10px Droid Sans,Trebuchet MS,Arial,Helvetica,sans-serif;stroke:none;fill:#000000">2</text><text x="8.125" y="282.5" text-anchor="start" style="font:10px Droid Sans,Trebuchet MS,Arial,Helvetica,sans-serif;stroke:none;fill:#000000">3</text><text x="8.125" y="242.5" text-anchor="start" style="font:10px Droid Sans,Trebuchet MS,Arial,Helvetica,sans-serif;stroke:none;fill:#000000">4</text><text x="8.125" y="202.5" text-anchor="start" style="font:10px Droid Sans,Trebuchet MS,Arial,Helvetica,sans-serif;stroke:none;fill:#000000">5</text><text x="8.125" y="162.5" text-anchor="start" style="font:10px Droid Sans,Trebuchet MS,Arial,Helvetica,sans-serif;stroke:none;fill:#000000">6</text><text x="8.125" y="122.5" text-anchor="start" style="font:10px Droid Sans,Trebuchet MS,Arial,Helvetica,sans-serif;stroke:none;fill:#000000">7</text><text x="8.125" y="82.5" text-anchor="start" style="font:10px Droid Sans,Trebuchet MS,Arial,Helvetica,sans-serif;stroke:none;fill:#000000">8</text><text x="8.125" y="42.5" text-anchor="start" style="font:10px Droid Sans,Trebuchet MS,Arial,Helvetica,sans-serif;stroke:none;fill:#000000">9</text><text x="65" y="389.625" text-anchor="middle" style="font:10px Droid Sans,Trebuchet MS,Arial,Helvetica,sans-serif;stroke:none;fill:#000000">1</text><text x="130" y="389.625" text-anchor="middle" style="font:10px Droid Sans,Trebuchet MS,Arial,Helvetica,sans-serif;stroke:none;fill:#000000">2</text><text x="195" y="389.625" text-anchor="middle" style="font:10px Droid Sans,Trebuchet MS,Arial,Helvetica,sans-serif;stroke:none;fill:#000000">3</text><text x="260" y="389.625" text-anchor="middle" style="font:10px Droid Sans,Trebuchet MS,Arial,Helvetica,sans-serif;stroke:none;fill:#000000">4</text><text x="325" y="389.625" text-anchor="middle" style="font:10px Droid Sans,Trebuchet MS,Arial,Helvetica,sans-serif;stroke:none;fill:#000000">5</text><text x="390" y="389.625" text-anchor="middle" style="font:10px Droid Sans,Trebuchet MS,Arial,Helvetica,sans-serif;stroke:none;fill:#000000">6</text><text x="454.99999999999994" y="389.625" text-anchor="middle" style="font:10px Droid Sans,Trebuchet MS,Arial,Helvetica,sans-serif;stroke:none;fill:#000000">7</text><text x="520" y="389.625" text-anchor="middle" style="font:10px Droid Sans,Trebuchet MS,Arial,Helvetica,sans-serif;stroke:none;fill:#000000">8</text><text x="585" y="389.625" text-anchor="middle" style="font:10px Droid Sans,Trebuchet MS,Arial,Helvetica,sans-serif;stroke:none;fill:#000000">9</text><path d="M0.00 399.69 L0.00 399.49 L0.01 398.96 L0.03 398.38 L0.05 397.70 L0.09 396.97 L0.15 396.19 L0.22 395.38 L0.30 394.54 L0.40 393.69 L0.52 392.81 L0.66 391.93 L0.82 391.03 L0.99 390.13 L1.18 389.22 L1.39 388.30 L1.62 387.38 L1.87 386.45 L2.13 385.51 L2.42 384.57 L2.72 383.63 L3.04 382.69 L3.39 381.74 L3.75 380.79 L4.13 379.84 L4.53 378.89 L4.95 377.93 L5.38 376.97 L5.84 376.02 L6.32 375.05 L6.82 374.09 L7.33 373.13 L7.87 372.16 L8.42 371.20 L9.00 370.23 L9.59 369.26 L10.21 368.29 L10.84 367.32 L11.50 366.35 L12.17 365.38 L12.86 364.41 L13.58 363.44 L14.31 362.46 L15.06 361.49 L15.84 360.51 L16.63 359.54 L17.44 358.56 L18.27 357.59 L19.12 356.61 L19.99 355.63 L20.89 354.65 L21.80 353.67 L22.73 352.69 L23.68 351.72 L24.65 350.74 L25.64 349.75 L26.65 348.77 L27.68 347.79 L28.73 346.81 L29.80 345.83 L30.89 344.85 L32.00 343.87 L33.13 342.88 L34.28 341.90 L35.45 340.92 L36.64 339.93 L37.85 338.95 L39.08 337.97 L40.33 336.98 L41.60 336.00 L42.89 335.01 L44.20 334.03 L45.53 333.04 L46.88 332.06 L48.25 331.07 L49.64 330.09 L51.05 329.10 L52.48 328.11 L53.94 327.13 L55.41 326.14 L56.90 325.15 L58.41 324.17 L59.94 323.18 L61.49 322.19 L63.06 321.20 L64.65 320.22 L66.26 319.23 L67.89 318.24 L69.54 317.25 L71.21 316.27 L72.90 315.28 L74.61 314.29 L76.34 313.30 L78.09 312.31 L79.87 311.32 L81.66 310.33 L83.47 309.34 L85.30 308.36 L87.15 307.37 L89.02 306.38 L90.91 305.39 L92.83 304.40 L94.76 303.41 L96.71 302.42 L98.68 301.43 L100.67 300.44 L102.67 299.45 L104.67 298.48 L106.67 297.51 L108.67 296.56 L110.67 295.61 L112.67 294.67 L114.67 293.74 L116.67 292.82 L118.67 291.90 L120.67 291.00 L122.67 290.10 L124.67 289.20 L126.67 288.32 L128.67 287.44 L130.67 286.57 L132.67 285.71 L134.67 284.85 L136.67 284.00 L138.67 283.15 L140.67 282.31 L142.67 281.48 L144.67 280.65 L146.67 279.83 L148.67 279.01 L150.67 278.20 L152.67 277.39 L154.67 276.59 L156.67 275.80 L158.67 275.01 L160.67 274.22 L162.67 273.44 L164.67 272.67 L166.67 271.89 L168.67 271.13 L170.67 270.37 L172.67 269.61 L174.67 268.86 L176.67 268.11 L178.67 267.36 L180.67 266.62 L182.67 265.89 L184.67 265.15 L186.67 264.43 L188.67 263.70 L190.67 262.98 L192.67 262.26 L194.67 261.55 L196.67 260.84 L198.67 260.14 L200.67 259.43 L202.67 258.74 L204.67 258.04 L206.67 257.35 L208.67 256.66 L210.67 255.97 L212.67 255.29 L214.67 254.61 L216.67 253.94 L218.67 253.27 L220.67 252.60 L222.67 251.93 L224.67 251.27 L226.67 250.61 L228.67 249.95 L230.67 249.29 L232.67 248.64 L234.67 247.99 L236.67 247.35 L238.67 246.70 L240.67 246.06 L242.67 245.42 L244.67 244.79 L246.67 244.15 L248.67 243.52 L250.67 242.90 L252.67 242.27 L254.67 241.65 L256.67 241.03 L258.67 240.41 L260.67 239.79 L262.67 239.18 L264.67 238.57 L266.67 237.96 L268.67 237.35 L270.67 236.75 L272.67 236.15 L274.67 235.55 L276.67 234.95 L278.67 234.35 L280.67 233.76 L282.67 233.17 L284.67 232.58 L286.67 231.99 L288.67 231.41 L290.67 230.83 L292.67 230.24 L294.67 229.66 L296.67 229.09 L298.67 228.51 L300.67 227.94 L302.67 227.37 L304.67 226.80 L306.67 226.23 L308.67 225.67 L310.67 225.10 L312.67 224.54 L314.67 223.98 L316.67 223.42 L318.67 222.86 L320.67 222.31 L322.67 221.76 L324.67 221.20 L326.67 220.65 L328.67 220.11 L330.67 219.56 L332.67 219.02 L334.67 218.47 L336.67 217.93 L338.67 217.39 L340.67 216.85 L342.67 216.32 L344.67 215.78 L346.67 215.25 L348.67 214.71 L350.67 214.18 L352.67 213.65 L354.67 213.13 L356.67 212.60 L358.67 212.08 L360.67 211.55 L362.67 211.03 L364.67 210.51 L366.67 209.99 L368.67 209.47 L370.67 208.96 L372.67 208.44 L374.67 207.93 L376.67 207.42 L378.67 206.91 L380.67 206.40 L382.67 205.89 L384.67 205.38 L386.67 204.88 L388.67 204.37 L390.67 203.87 L392.67 203.37 L394.67 202.87 L396.67 202.37 L398.67 201.87 L400.67 201.38 L402.67 200.88 L404.67 200.39 L406.67 199.90 L408.67 199.40 L410.67 198.91 L412.67 198.43 L414.67 197.94 L416.67 197.45 L418.67 196.96 L420.67 196.48 L422.67 196.00 L424.67 195.52 L426.67 195.03 L428.67 194.55 L430.67 194.08 L432.67 193.60 L434.67 193.12 L436.67 192.65 L438.67 192.17 L440.67 191.70 L442.67 191.23 L444.67 190.76 L446.67 190.29 L448.67 189.82 L450.67 189.35 L452.67 188.88 L454.67 188.42 L456.67 187.95 L458.67 187.49 L460.67 187.02 L462.67 186.56 L464.67 186.10 L466.67 185.64 L468.67 185.18 L470.67 184.73 L472.67 184.27 L474.67 183.81 L476.67 183.36 L478.67 182.90 L480.67 182.45 L482.67 182.00 L484.67 181.55 L486.67 181.10 L488.67 180.65 L490.67 180.20 L492.67 179.75 L494.67 179.30 L496.67 178.86 L498.67 178.41 L500.67 177.97 L502.67 177.53 L504.67 177.09 L506.67 176.64 L508.67 176.20 L510.67 175.76 L512.67 175.33 L514.67 174.89 L516.67 174.45 L518.67 174.01 L520.67 173.58 L522.67 173.14 L524.67 172.71 L526.67 172.28 L528.67 171.85 L530.67 171.42 L532.67 170.99 L534.67 170.56 L536.67 170.13 L538.67 169.70 L540.67 169.27 L542.67 168.85 L544.67 168.42 L546.67 167.99 L548.67 167.57 L550.67 167.15 L552.67 166.73 L554.67 166.30 L556.67 165.88 L558.67 165.46 L560.67 165.04 L562.67 164.62 L564.67 164.21 L566.67 163.79 L568.67 163.37 L570.67 162.96 L572.67 162.54 L574.67 162.13 L576.67 161.71 L578.67 161.30 L580.67 160.89 L582.67 160.48 L584.67 160.07 L586.67 159.66 L588.67 159.25 L590.67 158.84 L592.67 158.43 L594.67 158.02 L596.67 157.62 L598.67 157.21 L600.67 156.81 L602.67 156.40 L604.67 156.00 L606.67 155.59 L608.67 155.19 L610.67 154.79 L612.67 154.39 L614.67 153.99 L616.67 153.59 L618.67 153.19 L620.67 152.79 L622.67 152.39 L624.67 152.00 L626.67 151.60 L628.67 151.20 L630.67 150.81 L632.67 150.41 L634.67 150.02 L636.67 149.62 L638.67 149.23 L640.67 148.84 L642.67 148.45 L644.67 148.06 L646.67 147.67 L648.67 147.28 " style="fill:none;stroke:#FF0000;stroke-width:1;" /></g></svg>