<?xml version="1.0" standalone="no"?>
<!DOCTYPE svg PUBLIC "-//W3C//DTD SVG 20010904//EN"
 "http://www.w3.org/TR/2001/REC-SVG-20010904/DTD/svg10.dtd">
<svg version="1.0" xmlns="http://www.w3.org/2000/svg"
 width="720.000000pt" height="720.000000pt" viewBox="0 0 720.000000 720.000000"
 preserveAspectRatio="xMidYMid meet">
<metadata>
Created by potrace 1.11, written by Peter Selinger 2001-2013
</metadata>
<g transform="translate(0.000000,720.000000) scale(0.100000,-0.100000)"
fill="#000000" stroke="none">
<path d="M2600 5878 c-1 -20 -1 -4541 0 -4555 0 -10 52 -13 225 -13 l225 0 0
1060 0 1060 185 0 c165 0 185 -2 193 -17 5 -10 171 -487 368 -1060 l359 -1043
213 0 c116 0 212 4 212 8 0 5 -166 472 -369 1038 -202 566 -372 1039 -375
1052 -7 22 -6 22 73 22 l81 0 0 40 0 40 125 0 c103 0 134 4 182 21 76 29 143
96 172 172 21 58 21 61 21 997 0 916 0 941 -20 993 -27 73 -79 130 -148 164
l-57 28 -832 3 c-669 2 -833 0 -833 -10z m1480 -1188 l0 -840 -359 0 -359 0
-16 -25 c-16 -25 -18 -25 -156 -25 l-140 0 0 865 0 865 515 0 515 0 0 -840z"/>
</g>
</svg>
